# xmcd CD database file
#
# Track frame offsets:
#	150
#	16318
#	34019
#	51325
#	85085
#	108848
#	127347
#	145505
#	161567
#	186071
#	206949
#	229332
#
# Disc length: 3454 seconds
#
# Revision: 0
# Processed by: cddbd v1.5.2PL0 Copyright (c) Steve Scherf et al.
# Submitted via: CDex 1.51
#
DISCID=a30d7c0c
DTITLE=George Benson - Greatest Hits Disc 3
DYEAR=2008
DGENRE=Jazz
TTITLE0=The Greatest Love Of All
TTITLE1=Unchained Melody
TTITLE2=Love X Love
TTITLE3=Weekend in L.A.
TTITLE4=Inside Love (So Personal)
TTITLE5=Never Give Up On  A Good Thing
TTITLE6=Lady Love Me (One More Time)
TTITLE7=Shiver
TTITLE8=Off Broadway
TTITLE9=Gonna Love You More
TTITLE10=In Search Of A Dream
TTITLE11=Livin' Inside Your Love
EXTD=YEAR: 2008
EXTT0=
EXTT1=
EXTT2=
EXTT3=
EXTT4=
EXTT5=
EXTT6=
EXTT7=
EXTT8=
EXTT9=
EXTT10=
EXTT11=
PLAYORDER=
